<svg xmlns="http://www.w3.org/2000/svg" width="1440" height="1000" viewBox="0 0 1440 1000" font-family="Arial, Helvetica, sans-serif">
<rect width="1440" height="1000" fill="#FFFFFF"/>
<rect x="450" y="60" width="540" height="880" fill="none" stroke="#000" stroke-width="2"/>
<text x="720" y="98" text-anchor="middle" font-size="22" font-weight="700" fill="#000">MedGuard System</text>
<g fill="none" stroke="#000" stroke-width="2.5">
<circle cx="150" cy="470" r="28"/><line x1="150" y1="498" x2="150" y2="570"/><line x1="104" y1="526" x2="196" y2="526"/><line x1="150" y1="570" x2="112" y2="622"/><line x1="150" y1="570" x2="188" y2="622"/>
<circle cx="1290" cy="150" r="26"/><line x1="1290" y1="176" x2="1290" y2="242"/><line x1="1248" y1="202" x2="1332" y2="202"/><line x1="1290" y1="242" x2="1256" y2="288"/><line x1="1290" y1="242" x2="1324" y2="288"/>
<circle cx="1290" cy="410" r="26"/><line x1="1290" y1="436" x2="1290" y2="502"/><line x1="1248" y1="462" x2="1332" y2="462"/><line x1="1290" y1="502" x2="1256" y2="548"/><line x1="1290" y1="502" x2="1324" y2="548"/>
</g>
<g fill="none" stroke="#000" stroke-width="2">
<ellipse cx="720" cy="170" rx="200" ry="46"/><ellipse cx="720" cy="300" rx="200" ry="46"/><ellipse cx="720" cy="420" rx="200" ry="48"/><ellipse cx="720" cy="550" rx="200" ry="46"/><ellipse cx="720" cy="680" rx="200" ry="46"/><ellipse cx="720" cy="810" rx="200" ry="46"/>
</g>
<g fill="#000" text-anchor="middle" font-weight="700"><text x="150" y="668" font-size="24">User</text><text x="1290" y="330" font-size="22">Firebase</text><text x="1290" y="590" font-size="22">Flask API</text></g>
<g fill="#000" text-anchor="middle" font-size="18" font-style="italic"><text x="150" y="694">patient / clinician</text><text x="1290" y="356">authentication</text><text x="1290" y="616">prediction service</text></g>
<g fill="#000" text-anchor="middle" font-size="23">
<text x="720" y="178">Sign in</text><text x="720" y="308">Search &amp; add medicines</text><text x="720" y="428">Check interactions</text><text x="720" y="558">View safety report</text><text x="720" y="688">Manage allergies</text><text x="720" y="818">Set reminders</text>
</g>
<g fill="none" stroke="#000" stroke-width="2">
<line x1="180" y1="458" x2="522" y2="180"/><line x1="184" y1="466" x2="522" y2="305"/><line x1="190" y1="474" x2="520" y2="420"/><line x1="184" y1="480" x2="522" y2="545"/><line x1="180" y1="490" x2="522" y2="672"/><line x1="174" y1="498" x2="522" y2="802"/>
<line x1="1264" y1="150" x2="922" y2="165"/><line x1="1264" y1="410" x2="922" y2="420"/>
</g>
</svg>
